<?xml version="1.0" standalone="no"?>
<!DOCTYPE svg PUBLIC "-//W3C//DTD SVG 20010904//EN"
 "http://www.w3.org/TR/2001/REC-SVG-20010904/DTD/svg10.dtd">
<svg version="1.0" xmlns="http://www.w3.org/2000/svg"
 width="1000.000000pt" height="1000.000000pt" viewBox="0 0 1000.000000 1000.000000"
 preserveAspectRatio="xMidYMid meet">
<metadata>
Created by potrace 1.11, written by Peter Selinger 2001-2013
</metadata>
<g transform="translate(0.000000,1000.000000) scale(0.100000,-0.100000)"
fill="#000000" stroke="none">
<path d="M755 9170 c-2 -4 -4 -91 -4 -193 1 -130 5 -187 13 -189 6 -2 198 -3
427 -3 445 1 431 3 396 -43 -6 -8 -32 -50 -57 -95 -49 -87 -204 -352 -219
-377 -11 -17 -92 -155 -123 -210 -11 -19 -51 -87 -88 -150 -217 -367 -430
-733 -430 -739 0 -8 1628 -7 1636 2 10 10 6 379 -4 386 -6 3 -213 6 -461 5
-248 -1 -451 1 -451 3 0 4 283 485 500 848 92 156 170 286 205 347 5 10 57 98
115 195 58 97 110 186 117 198 l12 22 -790 0 c-434 0 -792 -3 -794 -7z"/>
<path d="M4005 8179 c1 -549 3 -1000 6 -1003 11 -11 816 -9 874 2 33 7 69 14
80 16 148 29 330 103 465 191 101 65 226 219 288 356 30 66 68 203 77 274 8
71 8 240 0 310 -12 107 -76 298 -115 348 -11 14 -20 28 -20 32 0 25 -135 177
-211 238 -62 50 -223 128 -339 165 -196 63 -225 65 -685 67 l-420 2 0 -998z
m815 601 c151 -28 292 -93 370 -171 120 -119 176 -271 172 -461 -4 -202 -105
-388 -263 -481 -69 -41 -204 -90 -289 -106 -76 -13 -350 -11 -351 3 -6 43 -4
1222 2 1226 14 10 295 2 359 -10z"/>
<path d="M8105 9155 c-325 -56 -614 -269 -744 -550 -29 -61 -70 -179 -77 -220
-2 -16 -9 -55 -14 -85 -20 -113 -13 -228 24 -373 85 -334 321 -586 653 -697
446 -149 954 -2 1209 350 157 216 226 494 184 740 -86 509 -494 847 -1022 848
-73 0 -169 -6 -213 -13z m404 -405 c213 -72 358 -236 394 -446 64 -366 -129
-662 -474 -728 -77 -15 -196 -13 -271 4 -101 23 -217 87 -289 159 -73 73 -106
127 -140 228 -21 59 -24 86 -23 208 0 126 3 147 27 215 47 128 123 225 230
293 46 29 107 59 121 59 3 0 31 8 63 18 83 26 273 21 362 -10z"/>
<path d="M817 6022 c-9 -2 -17 -9 -18 -15 -1 -15 -1 -1959 0 -1972 1 -7 152
-10 449 -9 495 2 558 8 752 74 252 84 389 263 395 515 3 163 -46 281 -160 387
-27 25 -136 84 -190 103 -17 6 -13 10 24 24 111 41 218 172 241 296 14 77 8
181 -15 240 -34 89 -84 156 -155 208 -82 60 -315 131 -470 143 -86 7 -822 12
-853 6z m843 -388 c146 -36 201 -98 195 -217 -6 -105 -62 -176 -166 -208 -59
-18 -89 -20 -260 -17 l-194 3 -3 227 -2 227 112 3 c167 4 246 0 318 -18z m75
-768 c129 -35 190 -112 189 -241 0 -113 -44 -172 -152 -205 -54 -17 -184 -34
-252 -33 -8 0 -77 1 -152 2 l-138 1 0 249 0 248 223 -3 c167 -1 237 -6 282
-18z"/>
<path d="M6492 6022 c-12 -2 -19 -8 -16 -14 3 -5 12 -31 19 -56 14 -47 101
-333 150 -492 15 -47 28 -89 29 -95 1 -5 9 -32 18 -60 9 -27 32 -102 51 -165
120 -394 192 -629 222 -725 18 -60 50 -164 70 -230 20 -66 40 -131 44 -145 l8
-25 221 0 c121 0 223 3 226 6 3 3 47 138 97 300 50 162 115 369 144 461 30 92
69 220 86 283 32 112 43 127 53 75 5 -29 63 -225 136 -465 82 -269 90 -294
120 -395 71 -235 83 -275 85 -278 6 -7 469 -2 476 5 6 7 85 251 109 338 9 33
22 74 108 355 395 1281 402 1303 402 1307 0 2 -99 3 -220 3 l-219 0 -36 -117
c-20 -65 -50 -163 -66 -218 -17 -55 -46 -149 -64 -210 -56 -182 -192 -646
-216 -738 -13 -48 -26 -84 -29 -79 -7 7 -47 132 -55 168 -5 26 -101 352 -131
449 -14 44 -27 87 -29 95 -2 8 -27 89 -55 180 -46 146 -65 210 -127 418 -12
41 -20 52 -37 53 -59 2 -299 -1 -301 -3 -2 -2 -37 -113 -78 -248 -42 -135
-107 -346 -146 -470 -38 -124 -97 -319 -130 -434 -34 -115 -63 -211 -65 -213
-2 -2 -16 43 -31 99 -41 155 -103 371 -135 478 -16 52 -77 252 -135 444 -58
193 -107 352 -110 354 -4 5 -411 8 -443 4z"/>
<path d="M3514 6011 c-3 -3 62 -102 89 -136 10 -12 569 -810 633 -904 l44 -63
0 -454 0 -454 158 -1 c205 -1 256 1 262 11 3 4 5 209 4 455 l-1 446 113 162
c160 230 199 285 438 627 117 168 213 306 212 307 -1 2 -112 3 -247 4 l-244 2
-145 -221 c-80 -122 -185 -284 -235 -361 -49 -78 -93 -141 -96 -141 -4 0 -28
35 -55 78 -26 42 -89 138 -138 212 -50 74 -95 143 -101 152 -5 10 -48 76 -95
147 l-85 130 -105 1 c-58 1 -172 2 -253 3 -82 1 -150 0 -153 -2z"/>
<path d="M1565 2893 c-259 -45 -436 -129 -595 -283 -105 -101 -162 -178 -218
-292 -145 -297 -142 -646 9 -938 148 -286 443 -498 764 -549 62 -10 369 -7
440 5 136 22 374 103 376 128 4 58 1 428 -4 433 -4 3 -15 -1 -24 -9 -59 -52
-290 -141 -402 -156 -95 -12 -282 -8 -336 7 -216 61 -378 215 -447 425 -26 81
-32 246 -13 341 49 235 245 431 480 480 125 26 319 9 473 -41 62 -20 169 -70
205 -96 15 -11 30 -18 32 -16 5 4 7 149 6 324 l-1 120 -97 36 c-95 35 -191 60
-283 73 -49 8 -332 14 -365 8z"/>
<path d="M3515 2860 c-2 -4 393 -573 438 -631 6 -8 17 -23 22 -31 10 -16 51
-74 163 -234 31 -45 76 -109 100 -143 l42 -61 0 -455 0 -455 209 0 c158 0 210
3 213 12 2 7 3 213 2 457 l-1 444 273 391 c150 215 303 435 341 489 37 54 87
123 110 155 23 31 39 59 37 62 -3 2 -114 5 -246 5 l-241 0 -136 -205 c-75
-113 -181 -276 -236 -363 -55 -86 -103 -157 -107 -157 -3 0 -18 21 -33 48 -27
45 -171 267 -188 287 -5 6 -63 93 -129 195 -66 102 -122 187 -125 190 -6 6
-504 7 -508 0z"/>
</g>
</svg>
