<svg xmlns="http://www.w3.org/2000/svg" viewBox="0 0 87.03 55.99">
  <path d="M0 43.81h87.03v12.17H0z" fill="#009ed1"/>
  <path d="M14.59 29.25h1.91L28.97 5.86h-1.91z" fill="#111"/>
  <path d="M28.04 29.25L43.57.13h-1.91L26.13 29.25h1.91z" fill="#009ed1"/>
  <path d="M0 2.04h31.01L32.03.13H1.02L0 2.04z" fill="#111"/>
  <path d="M15.52 5.86L0 34.98h1.91L17.44 5.86h-1.92z" fill="#009ed1"/>
  <path d="M43.56 33.07h-31l-1.02 1.91h31.01l1.01-1.91zM54.6 1.77H51V.13h6.65l-4 6.76h3.88v1.66h-6.9zM64.62.13H67a6.08 6.08 0 013.52.87 3.93 3.93 0 011.62 3.35 4 4 0 01-1.4 3.19 5.88 5.88 0 01-3.84 1h-2.28zM67 6.93a3.64 3.64 0 002.49-.66 2.5 2.5 0 00.81-1.94 2.45 2.45 0 00-1-2.07 4 4 0 00-2.3-.52h-.5v5.19zm11.23-2.59a4.4 4.4 0 018.79 0 4.4 4.4 0 01-8.79 0zm6.95 0a2.55 2.55 0 10-5.1 0 2.55 2.55 0 105.1 0zm-33.99 9H54a5.44 5.44 0 012.56.48 1.76 1.76 0 011 1.63 1.71 1.71 0 01-1.27 1.71 2 2 0 011.6 2 2.24 2.24 0 01-1.6 2.21 6.18 6.18 0 01-2.2.33h-2.9zm3.14 3.49c.75 0 1.29-.28 1.29-1a.78.78 0 00-.39-.73 2.9 2.9 0 00-1.3-.21H53v1.91zM54 20.18a4 4 0 001.4-.16.83.83 0 00.52-.85c0-.73-.51-1.07-1.5-1.07H53v2.08zM65.77 18l-3.24-4.62h2.15l1 1.52c.33.48.68 1 1 1.55.32-.51.66-1 1-1.56l1-1.51h2.08l-3.22 4.61v3.82h-1.77zm9.18-4.66h1.94L78 17c.21.71.42 1.47.6 2.18.2-.72.42-1.48.64-2.19l1.12-3.61h1.34l1.1 3.61.64 2.19c.19-.71.41-1.49.63-2.21l1.08-3.58H87l-2.59 8.42h-2l-.91-3c-.22-.71-.41-1.34-.59-2a33 33 0 01-.6 2l-.91 2.93h-1.88zM57.66 34.55a5.41 5.41 0 01-2.47.56 4.35 4.35 0 110-8.68 5.39 5.39 0 012.34.52v1.87a4.28 4.28 0 00-2.33-.73 2.61 2.61 0 00-2.74 2.66 2.64 2.64 0 002.82 2.69 4.23 4.23 0 002.38-.78zm8.11-3.37l-3.24-4.62h2.15l1 1.52c.33.48.69 1 1 1.55.32-.51.66-1 1-1.56l1-1.51h2.08l-3.22 4.61V35h-1.77z" fill="#111"/>
  <path fill="#fff" d="M6.5 47.6h1.05v2.13l1.7-2.13h1.25l-1.82 2.23 2 2.58H9.35L7.56 50v2.4H6.5zm6.74 2.4a2.51 2.51 0 112.51 2.48A2.45 2.45 0 0113.24 50zm4 0a1.46 1.46 0 10-1.46 1.52c.82-.02 1.46-.7 1.43-1.52zm6.26.47l-.9-1.24v3.18h-1V47.6h1l1.4 1.94.9 1.24V47.6h1v4.81h-1zm5.97-2.87h3v.92h-2v1h1.71v.88h-1.66v2h-1.05zm6.41 0h3v.92h-1.95v.94h1.65v.88h-1.65v1.14h2v.92h-3zm6.38 0h1.51c.52-.03 1.04.08 1.5.32.39.24.61.67.58 1.13.02.62-.4 1.17-1 1.33l1.35 2H45l-1.22-1.9h-.47v1.9h-1.05zm1.59 2.12c.23.01.45-.02.66-.11a.5.5 0 00.27-.49.47.47 0 00-.27-.47 1.8 1.8 0 00-.79-.13h-.41v1.2zm5.4-2.12h3v.92H50.3v.94H52v.88h-1.7v1.14h2v.92h-3zm8.3 2.87l-.9-1.24v3.18h-1V47.6h1l1.44 1.94.9 1.24V47.6h1v4.81H59zm9.78 1.7a3.1 3.1 0 01-1.41.32c-3.33 0-3.33-5 0-5 .46 0 .91.1 1.33.3v1.11c-.4-.27-.86-.41-1.33-.42A1.49 1.49 0 0064.36 50c-.02.9.74 1.62 1.64 1.54.49-.01.96-.17 1.36-.45zm4.11-4.57h1.06v3.23c.03.42-.08.83-.32 1.17-.3.3-.7.47-1.13.44a2 2 0 01-.71-.13v-.95c.2.08.4.12.61.13.4 0 .49-.18.49-.68zm6.12 0h1l2 4.81h-1.15l-.38-1h-1.95l-.39 1h-1.08zm-.15 3h1.3l-.2-.54-.44-1.22-.45 1.25z"/>
</svg>
